<?xml version="1.0" standalone="no"?>
<!DOCTYPE svg PUBLIC "-//W3C//DTD SVG 20010904//EN"
 "http://www.w3.org/TR/2001/REC-SVG-20010904/DTD/svg10.dtd">
<svg version="1.0" xmlns="http://www.w3.org/2000/svg"
 width="356.000000pt" height="356.000000pt" viewBox="0 0 356.000000 356.000000"
 preserveAspectRatio="xMidYMid meet">
<metadata>
Created by potrace 1.11, written by Peter Selinger 2001-2013
</metadata>
<g transform="translate(0.000000,356.000000) scale(0.100000,-0.100000)"
fill="#000000" stroke="none">
<path d="M1763 2468 c-5 -7 -27 -56 -48 -108 -21 -52 -48 -117 -60 -145 -13
-27 -25 -57 -27 -65 -4 -10 -11 -3 -21 20 -25 56 -43 71 -86 77 -48 7 -93 -18
-145 -78 l-33 -40 -7 40 c-10 63 -74 102 -110 66 -14 -14 -46 -11 -46 4 0 4
-11 13 -24 19 -25 11 -66 6 -66 -9 0 -16 -83 -189 -90 -189 -5 0 1 23 11 51
11 27 17 54 14 58 -2 5 4 16 15 26 11 10 20 23 20 29 0 6 9 22 20 36 27 34 25
63 -6 99 -19 23 -34 31 -59 31 -19 0 -37 5 -40 10 -3 6 -21 10 -38 10 -24 0
-45 -12 -87 -50 -51 -46 -87 -68 -62 -37 17 20 -18 79 -54 93 -27 11 -33 10
-64 -17 -131 -110 -301 -308 -389 -453 -30 -51 -32 -59 -21 -85 12 -30 64 -63
86 -54 7 2 40 47 75 99 71 108 92 129 55 55 -14 -28 -26 -59 -26 -70 0 -21 53
-71 76 -71 16 0 54 30 54 43 0 12 124 176 129 171 2 -2 -1 -14 -7 -27 -7 -12
-21 -48 -32 -81 l-20 -58 34 -34 c44 -44 74 -41 100 10 l18 37 33 -34 c18 -19
46 -37 63 -40 27 -6 30 -10 41 -79 21 -130 77 -267 142 -350 16 -20 29 -40 29
-43 0 -15 132 -133 197 -176 76 -49 201 -103 264 -113 20 -3 42 -8 50 -11 43
-16 214 -11 324 10 123 23 294 117 395 216 142 140 238 346 249 536 1 21 3 21
33 8 22 -9 39 -10 50 -4 10 5 18 7 18 3 0 -8 71 45 85 64 6 7 17 14 25 16 39
8 76 20 87 30 29 26 43 37 44 34 0 -2 2 -10 4 -18 15 -72 55 -100 135 -95 30
2 69 9 85 16 58 25 124 80 158 132 49 73 51 105 11 142 -22 20 -29 22 -55 13
-16 -5 -29 -14 -29 -20 0 -21 -46 -76 -58 -69 -10 6 -9 11 3 21 61 51 64 179
4 211 -30 16 -142 -14 -161 -44 -17 -26 -8 15 12 53 11 22 20 47 20 57 0 25
-50 73 -76 73 -26 0 -36 -11 -74 -86 -43 -86 -40 -108 18 -138 18 -9 30 -21
27 -27 -4 -5 -11 -7 -16 -4 -5 4 -20 -5 -34 -19 -26 -26 -29 -25 -39 16 -9 39
-52 86 -85 93 -34 7 -94 -15 -129 -48 -13 -12 -36 -47 -51 -77 -68 -136 -100
-194 -101 -182 0 7 7 28 15 48 8 19 15 38 16 42 4 19 34 88 103 236 47 100 52
127 31 159 -16 26 -33 35 -71 43 -17 3 -26 -6 -47 -49 -32 -65 -77 -165 -107
-237 -43 -105 -52 -125 -68 -157 -8 -17 -24 -42 -34 -55 l-18 -23 12 35 c6 19
47 113 90 209 43 96 78 184 78 196 0 30 -24 60 -60 75 -28 12 -33 11 -49 -6
-10 -10 -29 -46 -44 -79 -14 -33 -40 -91 -58 -130 -18 -38 -32 -73 -31 -77 4
-19 -16 -6 -26 17 -6 13 -25 31 -42 40 -57 30 -124 5 -184 -66 -14 -17 -26
-29 -27 -27 0 2 -2 12 -4 23 -7 37 -30 68 -59 80 -25 11 -34 10 -55 -3 -15 -9
-32 -22 -38 -31 -22 -26 -14 4 22 89 40 93 41 107 17 136 -32 40 -81 55 -99
32z m-246 -448 c23 0 24 -2 12 -17 -21 -25 -90 -73 -105 -73 -20 0 -8 47 24
97 12 20 16 21 29 8 8 -8 26 -15 40 -15z m598 -70 c-36 -24 -51 -25 -58 -6 -6
14 4 17 73 24 8 1 2 -7 -15 -18z"/>
</g>
</svg>
